<svg xmlns="http://www.w3.org/2000/svg" width="32" height="29" viewBox="0 0 32 29">
  <g id="_16570496861595602196_1_" data-name="16570496861595602196 (1)" transform="translate(0 -3)">
    <path id="Path_6456" data-name="Path 6456" d="M24,16a8,8,0,1,0,8,8A8.024,8.024,0,0,0,24,16Zm3,9H25v2a1,1,0,0,1-2,0V25H21a1,1,0,0,1,0-2h2V21a1,1,0,0,1,2,0v2h2a1,1,0,0,1,0,2Z" fill="#fff"/>
    <path id="Path_6457" data-name="Path 6457" d="M14.2,26a12.31,12.31,0,0,1-.2-2H7.6a.645.645,0,0,1-.6-.6.56.56,0,0,1,.5-.6l6.8-1.1A9.974,9.974,0,0,1,24,14a8.627,8.627,0,0,1,2.8.4L28,8.2a1.02,1.02,0,1,0-2-.4L25.8,9H6.6V8.9a4.073,4.073,0,0,0-.2-4A3.9,3.9,0,0,0,3,3H1A.945.945,0,0,0,0,4,.945.945,0,0,0,1,5H3A2.234,2.234,0,0,1,4.8,6a2.043,2.043,0,0,1,.1,2L4.1,9.6h0c0,.1,0,.1-.1.2V10H4v.4L7.8,20.7l-.6.1A2.59,2.59,0,0,0,5,23.4a2.645,2.645,0,0,0,1.3,2.3A2.768,2.768,0,0,0,6,27a2.946,2.946,0,0,0,3,3,2.934,2.934,0,0,0,2.8-4ZM9,28a1,1,0,0,1,0-2,1,1,0,0,1,0,2Z" fill="#fff"/>
  </g>
</svg>
